<svg xmlns="http://www.w3.org/2000/svg" xmlns:xlink="http://www.w3.org/1999/xlink" aria-hidden="true" role="img" class="iconify iconify--logos" width="31.88" height="32" preserveAspectRatio="xMidYMid meet" viewBox="0 0 256 257"><defs><linearGradient id="IconifyId18167556886944857" x1="-.828%" x2="57.636%" y1="7.652%" y2="78.411%"><stop offset="0%" stop-color="#41D1FF"></stop><stop offset="100%" stop-color="#BD34FE"></stop></linearGradient><linearGradient id="IconifyId18167556886944857" x1="44.292%" x2="50.181%" y1="2.242%" y2="89.03%"><stop offset="0%" stop-color="#FFBD4F"></stop><stop offset="100%" stop-color="#FF980E"></stop></linearGradient></defs><path fill="url(#IconifyId18167556886944857)" d="M255.153 37.938L134.897 252.976c-2.483 4.44-8.862 4.466-11.382.048L.875 37.958c-2.746-4.814 1.372-10.646 6.827-9.67l120.381 21.517a6.537 6.537 0 0 0 2.322-.004l117.867-21.483c5.438-.991 9.574 4.796 6.881 9.62Z"></path><path fill="url(#IconifyId18167556886944857)" d="M185.432.063L96.44 17.501a3.268 3.268 0 0 0-2.634 3.012l-5.494 92.456a3.268 3.268 0 0 0 3.997 3.388l24.777-5.718c2.318-.535 4.413 1.507 3.936 3.838l-7.357 36.047c-.495 2.426 1.782 4.5 4.151 3.78l15.304-4.649c2.372-.72 4.652 1.36 4.15 3.788l-11.698 56.665c-.732 3.542 3.979 5.473 5.943 2.437l1.313-2.028l72.516-144.72c1.693-3.385-1.179-7.326-4.873-6.695l-23.759 4.047c-2.396.408-4.435-1.843-3.799-4.199l16.641-61.716c.672-2.492-1.54-4.87-4.046-4.383Z"></path></svg>
